<svg id="Capa_1" data-name="Capa 1" xmlns="http://www.w3.org/2000/svg" viewBox="0 0 1280.09 198">
    <defs>
        <style>
            .cls-1,
            .cls-3,
            .cls-6 {
                fill-rule: evenodd;
            }

            .cls-3,
            .cls-4 {
                fill: #fff;
            }

            .cls-5,
            .cls-6 {
                fill: #fff;
            }
        </style>
    </defs>
    <title>CEF</title>
    <path class="cls-3"
        d="M429.2,147.47h80.65V125.3H429.2v22.18Zm-68.46,19.31a17.6,17.6,0,1,0,17.59-17.41,17.52,17.52,0,0,0-17.59,17.41ZM112.1,181.16h99.45v-24H140.86V125.28l63.53,0,0-22.17H140.86V75.29h69.23l0-24H112l.09,129.87Zm131.9,0h28.83V125.29l54.86,0V103.13H272.83V75.31l63.34,0v-24L244,51.3V181.15ZM15.07,15.19H545.8v202.1H15.06V183.76a74.09,74.09,0,0,0,8.14.43c32.12,0,54.7-20.73,57.62-53.09H52.9c-2.19,17.09-12.09,29.09-29.7,29.08a40.1,40.1,0,0,1-8.14-.78V73a40.53,40.53,0,0,1,8.09-.78C37.49,72.19,50,82,51.81,94.93H79.72C76.24,64.92,52,48.19,23.16,48.19a78.68,78.68,0,0,0-8.09.4V15.19Z"
        transform="translate(-15.06 -14.2)" />
    <path class="cls-4"
        d="M734.65,69V177.25c-7.11,6.31-14.75,12.91-21.59,12.91-9,0-12.12-6.33-12.12-15.81V69H667.75V178c0,26.61,10.54,36.87,30.82,36.87,13.69,0,25-8.42,37.13-19v16.33h32.14V69Z"
        transform="translate(-15.06 -14.2)" />
    <path class="cls-3"
        d="M866.38,179.89c-6.59,7.1-12.65,10.27-20,10.27-9,0-16.33-5.8-16.33-34.26V125.35c0-28.44,7.37-34.23,16.33-34.23,7.37,0,13.43,3.16,20,10.26v78.51Zm33.18,32.39V22.1H866.38V82.15c-15.81-11.58-24.23-15.8-33.2-15.8-25.81,0-36.34,20-36.34,56.9V158c0,36.88,10.53,56.89,36.34,56.89,14.75,0,29.51-11.06,35.3-20H869v17.38Z"
        transform="translate(-15.06 -14.2)" />
    <path class="cls-3" d="M935.41,69v143.3h33.18V69Zm33.18-24.76v-30H935.41v30Z" transform="translate(-15.06 -14.2)" />
    <path class="cls-5"
        d="M1004.36,212.28h33.18V104c4-5.53,13.44-12.9,20.55-12.9,5.27,0,9,2.63,9,12.11V212.28h33.19V104c4.21-5.53,14.48-12.9,20.81-12.9,5.27,0,8.69,2.63,8.69,12.11V212.28h33.2v-108c0-25.82-10.29-37.93-30.3-37.93-14.49,0-25,10.28-35.3,21.61-3.95-13.18-12.9-21.61-25.29-21.61-14,0-24.76,9.22-35.56,19V69h-32.13v143.3Z"
        transform="translate(-15.06 -14.2)" />
    <path class="cls-6"
        d="M1224.56,110.87c0-10.27,8.43-17.64,18.43-17.64,9.49,0,17.13,4.73,17.13,17.11v10.54c-41.36,12.38-73,26.6-73,59.79,0,23.18,12.9,34.24,32.93,34.24a54.71,54.71,0,0,0,39.51-16.58c1.05,5.79,1.58,10.26,2.37,13.95h33.19a42.74,42.74,0,0,1-1.85-11.59V109.82c0-25.56-13.43-43.47-48.72-43.47-26.61,0-50.85,12.64-53.22,44.52ZM1260.12,177c-7.91,7.9-15,13.17-25,13.17-8.95,0-14.75-5.54-14.75-15,0-15,20-26.06,39.78-32.91V177Z"
        transform="translate(-15.06 -14.2)" />
</svg>